<svg xmlns="http://www.w3.org/2000/svg" width="36" height="36" viewBox="0 0 36 36" fill="none">
  <defs>
    <linearGradient id="heartPointerGrad" x1="4" y1="4" x2="32" y2="32" gradientUnits="userSpaceOnUse">
      <stop offset="0%" stop-color="#FF7597"/>
      <stop offset="40%" stop-color="#FF2A55"/>
      <stop offset="100%" stop-color="#D90038"/>
    </linearGradient>
    <linearGradient id="shineGradP" x1="9" y1="7" x2="16" y2="16" gradientUnits="userSpaceOnUse">
      <stop offset="0%" stop-color="#FFFFFF" stop-opacity="0.9"/>
      <stop offset="100%" stop-color="#FFFFFF" stop-opacity="0"/>
    </linearGradient>
    <filter id="shadowP" x="-2" y="-1" width="40" height="40" filterUnits="userSpaceOnUse">
      <feDropShadow dx="0" dy="2.5" stdDeviation="2" flood-color="#FF0044" flood-opacity="0.4"/>
    </filter>
  </defs>

  <!-- Pulse Glow Behind Heart -->
  <path d="M18 31C18 31 4.5 22.8 4.5 13C4.5 8.3 8.3 4.5 13 4.5C15.8 4.5 18 6.2 18 6.2C18 6.2 20.2 4.5 23 4.5C27.7 4.5 31.5 8.3 31.5 13C31.5 22.8 18 31 18 31Z" fill="#FF2A55" opacity="0.25"/>

  <!-- Main Heart Shape -->
  <path d="M18 30C18 30 5 21.8 5 12.2C5 7.6 8.7 3.8 13.3 3.8C16.1 3.8 18 5.4 18 5.4C18 5.4 19.9 3.8 22.7 3.8C27.3 3.8 31 7.6 31 12.2C31 21.8 18 30 18 30Z" fill="url(#heartPointerGrad)" stroke="#FFFFFF" stroke-width="2" stroke-linejoin="round" filter="url(#shadowP)"/>
  
  <!-- Gloss -->
  <path d="M13.3 6.2C10.9 6.2 8.9 7.6 8.0 9.6C7.7 10.3 8.3 10.9 9.0 10.6C10.5 9.9 12.3 9.4 14.3 9.7C15.1 9.8 15.6 9.1 15.2 8.4C14.7 7.5 14.0 6.8 13.3 6.2Z" fill="url(#shineGradP)"/>

  <!-- Sparkle 1 -->
  <path d="M29 5L29.6 6.4L31 7L29.6 7.6L29 9L28.4 7.6L27 7L28.4 6.4L29 5Z" fill="#FFF" opacity="0.95"/>
  <!-- Sparkle 2 -->
  <path d="M7 23L7.4 24L8.5 24.4L7.4 24.8L7 25.8L6.6 24.8L5.5 24.4L6.6 24L7 23Z" fill="#FFF" opacity="0.9"/>
</svg>
